<svg width="94" height="24" viewBox="0 0 94 24" fill="none" xmlns="http://www.w3.org/2000/svg">
<path fill-rule="evenodd" clip-rule="evenodd" d="M0 12.2612L0.001158 12.1409L0.00354595 12.0206L0.00717001 11.9003L0.012024 11.78L0.01812 11.6597L0.0254459 11.5394L0.034014 11.4192L0.043812 11.299L0.054852 11.1788L0.067128 11.0586L0.0806399 10.9386L0.0953821 10.8186L0.111366 10.6987L0.128586 10.579L0.147036 10.4593L0.166722 10.3399L0.187644 10.2205L0.20979 10.1013L0.233172 9.98226L0.257784 9.8634L0.283626 9.74472L0.310686 9.62628L0.338982 9.50808L0.36849 9.39006L0.399228 9.27234L0.431178 9.1548L0.464352 9.03756L0.498738 8.92062L0.534336 8.80398L0.57114 8.68764L0.609156 8.5716L0.648378 8.45586L0.6888 8.34048L0.730416 8.22546L0.773232 8.1108L0.817236 7.9965L0.862434 7.88262L0.908814 7.7691L0.956376 7.65606L1.00511 7.54338L1.05503 7.43112L1.10611 7.31934L1.15836 7.20804L1.21177 7.09716L1.26634 6.98676L1.32206 6.8769L1.37893 6.76752L1.43695 6.65862L1.49609 6.55032L1.55638 6.4425L1.61779 6.33522L1.68032 6.22854L1.74398 6.1224L1.80874 6.01686L1.87462 5.91192L1.94159 5.80758L2.00966 5.7039L2.07882 5.60076L2.14906 5.49834L2.22038 5.39652L2.29277 5.29536L2.36623 5.19492L2.44074 5.09508L2.5163 4.99602L2.59292 4.89762L2.67056 4.7999L2.74924 4.70294L2.82895 4.60672L2.90966 4.51123L2.9914 4.4165L3.07413 4.32253L3.15785 4.22935L3.24257 4.13694L3.32827 4.04533L3.41493 3.95453L3.50256 3.86454L3.59114 3.77537L3.68068 3.68704L3.77115 3.59956L3.86255 3.51292L3.95488 3.42716L4.04812 3.34226L4.14227 3.25825L4.23731 3.17512L4.33325 3.09289L4.43006 3.01158L4.52774 2.93119L4.62628 2.85172L4.72568 2.77318L4.82592 2.69559L4.92696 2.61896L5.0289 2.54328L5.13162 2.46858L5.23512 2.39486L5.3394 2.32212L5.44452 2.25038L5.55036 2.17963L5.65698 2.10991L5.76438 2.04119L5.87256 1.97351L5.9814 1.90687L6.09102 1.84126L6.2013 1.7767L6.3123 1.7132L6.42402 1.65077L6.5364 1.58941L6.64944 1.52912L6.76314 1.46992L6.8775 1.41181L6.99252 1.35481L7.10814 1.2989L7.22442 1.24411L7.34124 1.19044L7.45872 1.1379L7.57674 1.08649L7.69536 1.03621L7.81452 0.987084L7.93422 0.939102L8.05446 0.892272L8.17524 0.846612L8.2965 0.80211L8.4183 0.75879L8.54058 0.71664L8.66334 0.675672L8.78652 0.635898L8.91018 0.597312L9.03432 0.559926L9.15888 0.523746L9.2838 0.488772L9.4092 0.455004L9.53496 0.422454L9.66108 0.391128L9.78756 0.361032L9.91446 0.332154L10.0417 0.304518L10.1692 0.278112L10.297 0.252948L10.4252 0.229032L10.5536 0.206358L10.6824 0.184938L10.8114 0.164772L10.9406 0.14586L11.0701 0.128214L11.1998 0.111828L11.3298 0.096708L11.4599 0.0828479L11.5903 0.070272L11.7208 0.058962L11.8514 0.0489241L11.9822 0.04017L12.6857 0L12.7258 3.3892L12.7488 3.38894L12.8459 3.3888L12.9431 3.38962L13.0402 3.39139L13.1375 3.39412L13.2347 3.3978L13.3319 3.40243L13.4292 3.40803L13.5265 3.41459L13.6237 3.42209L13.7209 3.43057L13.8181 3.44L13.9152 3.45039L14.0122 3.46174L14.1092 3.47404L14.2061 3.48731L14.303 3.50153L14.3997 3.51671L14.4964 3.53285L14.5928 3.54995L14.6893 3.568L14.7855 3.58701L14.8816 3.60698L14.9776 3.62789L15.0733 3.64976L15.1689 3.67258L15.2644 3.69635L15.3596 3.72108L15.4546 3.74675L15.5494 3.77336L15.644 3.80092L15.7383 3.82942L15.8324 3.85886L15.9262 3.88925L16.0198 3.92057L16.1131 3.95282L16.2061 3.986L16.2989 4.02011L16.3913 4.05516L16.4834 4.09112L16.5752 4.12802L16.6666 4.16583L16.7577 4.20455L16.8485 4.2442L16.9389 4.28475L17.0289 4.32621L17.1185 4.36857L17.2078 4.41184L17.2967 4.456L17.3851 4.50106L17.4731 4.54701L17.5607 4.59385L17.6479 4.64157L17.7346 4.69017L17.8209 4.73965L17.9067 4.78999L17.992 4.84122L18.0769 4.8933L18.1612 4.94622L18.245 5.00004L18.3284 5.05464L18.4112 5.11014L18.4935 5.16648L18.5752 5.2236L18.6565 5.28162L18.7371 5.34042L18.8171 5.40006L18.8967 5.46054L18.9756 5.5218L19.054 5.5839L19.1317 5.64672L19.2088 5.71038L19.2853 5.77488L19.3612 5.8401L19.4365 5.9061L19.5112 5.97288L19.5851 6.04044L19.6584 6.10878L19.7311 6.17784L19.8031 6.24762L19.8743 6.31818L19.945 6.38946L20.0149 6.46152L20.0841 6.53424L20.1526 6.60768L20.2204 6.68184L20.2874 6.75672L20.3537 6.83226L20.4193 6.90852L20.4841 6.98544L20.5481 7.06302L20.6114 7.14132L20.674 7.22022L20.7357 7.29978L20.7967 7.38L20.8568 7.46088L20.9162 7.54236L20.9747 7.6245L21.0325 7.70724L21.0894 7.79052L21.1455 7.87446L21.2008 7.959L21.2552 8.04414L21.3087 8.12982L21.3614 8.21604L21.4133 8.30286L21.4643 8.39022L21.5144 8.47812L21.5636 8.56656L21.612 8.65554L21.6595 8.745L21.706 8.835L21.7517 8.92548L21.7964 9.01644L21.8403 9.10794L21.8833 9.19986L21.9253 9.29226L21.9664 9.38514L22.0065 9.47844L22.0457 9.57222L22.084 9.66636L22.1213 9.76098L22.1576 9.85596L22.193 9.95142L22.2275 10.0472L22.261 10.1434L22.2935 10.24L22.325 10.3369L22.3556 10.4342L22.3852 10.5318L22.4137 10.6298L22.4413 10.7281L22.4679 10.8267L22.4935 10.9256L22.5181 11.0248L22.5417 11.1244L22.5643 11.2241L22.5858 11.3242L22.6064 11.4245L22.6259 11.5251L22.6444 11.6259L22.6619 11.7269L22.6783 11.8282L22.6937 11.9296L22.7081 12.0313L22.7215 12.1331L22.7338 12.2352L22.745 12.3374L22.7552 12.4397L22.7644 12.5422L22.7726 12.6449L22.7797 12.7477L22.7857 12.8506L22.7906 12.9535L22.7946 13.0567L22.7974 13.1598L22.7993 13.2631L22.8 13.3664L22.7997 13.4698L22.7983 13.5732L22.7959 13.6767L22.7924 13.7801L22.7878 13.8836L22.7822 13.9871L22.7755 14.0906L22.7678 14.1941L22.759 14.2976L22.7491 14.401L22.7381 14.5044L22.7261 14.6077L22.713 14.7109L22.6989 14.8141L22.6837 14.9171L22.6674 15.0201L22.6501 15.1229L22.6316 15.2257L22.6122 15.3283L22.5917 15.4307L22.5701 15.533L22.5474 15.6352L22.5237 15.7372L22.499 15.8389L22.4731 15.9405L22.4462 16.0418L22.4183 16.143L22.3894 16.2439L22.3594 16.3446L22.3283 16.4451L22.2961 16.5452L22.263 16.6452L22.2288 16.7448L22.1935 16.8442L22.1573 16.9432L22.12 17.0419L22.0816 17.1403L22.0423 17.2384L22.0019 17.3362L21.9605 17.4335L21.9181 17.5306L21.8746 17.6272L21.8302 17.7235L21.7847 17.8194L21.7382 17.9149L21.6907 18.01L21.6423 18.1046L21.5928 18.1988L21.5424 18.2926L21.4909 18.3859L21.4385 18.4787L21.3851 18.5711L21.3308 18.6631L21.2755 18.7544L21.2192 18.8454L21.1619 18.9358L21.1037 19.0256L21.0446 19.115L20.9845 19.2038L20.9234 19.292L20.8615 19.3798L20.7986 19.4669L20.7347 19.5535L20.67 19.6394L20.6044 19.7248L20.5378 19.8095L20.4704 19.8937L20.402 19.9772L20.3328 20.0601L20.2627 20.1424L20.1917 20.224L20.1198 20.3049L20.0471 20.3852L19.9735 20.4648L19.8991 20.5437L19.8238 20.6219L19.7477 20.6994L19.6708 20.7762L19.593 20.8523L19.5145 20.9276L19.4351 21.0023L19.3549 21.0761L19.2739 21.1493L19.1921 21.2216L19.1096 21.2932L19.0263 21.364L18.9422 21.434L18.8574 21.5032L18.7718 21.5717L18.6855 21.6393L18.5984 21.7061L18.5107 21.772L18.4222 21.8372L18.333 21.9015L18.2431 21.9649L18.1525 22.0276L18.0612 22.0893L17.9693 22.1501L17.8766 22.2101L17.7834 22.2693L17.6895 22.3275L17.5949 22.3849L17.4997 22.4413L17.4039 22.4968L17.3075 22.5514L17.2105 22.6051L17.1129 22.6579L17.0147 22.7096L16.9159 22.7605L16.8166 22.8105L16.7167 22.8595L16.6162 22.9075L16.5152 22.9546L16.4137 23.0006L16.3117 23.0458L16.2092 23.0899L16.1062 23.133L16.0027 23.1752L15.8987 23.2163L15.7942 23.2565L15.6893 23.2957L15.5839 23.3338L15.4781 23.3709L15.3719 23.407L15.2653 23.4421L15.1582 23.4761L15.0507 23.5091L14.9429 23.5411L14.8347 23.572L14.7261 23.6018L14.6172 23.6307L14.5079 23.6584L14.3983 23.6851L14.2884 23.7108L14.1781 23.7353L14.0676 23.7589L13.9568 23.7813L13.8457 23.8027L13.7343 23.8229L13.6227 23.8421L13.5108 23.8602L13.3987 23.8772L13.2863 23.8931L13.1738 23.908L13.0611 23.9217L12.9481 23.9343L12.835 23.9458L12.7217 23.9563L12.6083 23.9656L12.4948 23.9738L12.3811 23.9809L12.2672 23.9869L12.1532 23.9917L12.0392 23.9954L11.9251 23.9981L11.8109 23.9996L11.6966 24L11.5823 23.9993L11.4679 23.9974L11.3535 23.9945L11.2391 23.9903L11.1247 23.9851L11.0102 23.9788L10.8959 23.9713L10.7815 23.9627L10.6672 23.953L10.5529 23.9422L10.4386 23.9302L10.3245 23.9171L10.2104 23.9029L10.0964 23.8876L9.98262 23.8711L9.86886 23.8535L9.75528 23.8348L9.64182 23.815L9.52848 23.794L9.41538 23.7719L9.3024 23.7487L9.18966 23.7244L9.07704 23.6989L8.96472 23.6724L8.85258 23.6447L8.74068 23.6159L8.62902 23.5861L8.51766 23.5551L8.40654 23.523L8.29566 23.4898L8.18514 23.4555L8.07492 23.4201L7.965 23.3836L7.85538 23.346L7.74612 23.3073L7.63722 23.2676L7.52868 23.2267L7.4205 23.1848L7.31274 23.1418L7.20534 23.0977L7.09836 23.0525L6.9918 23.0063L6.88566 22.959L6.77994 22.9106L6.6747 22.8612L6.56994 22.8107L6.46566 22.7592L6.3618 22.7066L6.25848 22.6531L6.1557 22.5984L6.05334 22.5428L5.95158 22.4861L5.85036 22.4284L5.74968 22.3696L5.64954 22.3099L5.55 22.2491L5.451 22.1873L5.3526 22.1246L5.25486 22.0609L5.15766 21.9962L5.06112 21.9304L4.96524 21.8638L4.86996 21.7961L4.77535 21.7275L4.6814 21.658L4.58812 21.5874L4.49554 21.5159L4.40364 21.4436L4.31245 21.3702L4.22197 21.296L4.13222 21.2208L4.0432 21.1447L3.95492 21.0677L3.8674 20.9898L3.78064 20.911L3.69465 20.8314L3.60944 20.7508L3.52502 20.6695L3.44141 20.5871L3.3586 20.504L3.27661 20.4201L3.19544 20.3353L3.11512 20.2496L3.03563 20.1632L2.95701 20.0759L2.87924 19.9878L2.80235 19.8989L2.72633 19.8092L2.65121 19.7188L2.57698 19.6276L2.50366 19.5356L2.43125 19.4428L2.35976 19.3493L2.2892 19.2551L2.21957 19.1601L2.1509 19.0644L2.08317 18.968L2.01641 18.8709L1.95061 18.7731L1.88579 18.6746L1.82196 18.5755L1.75911 18.4756L1.69726 18.3751L1.63642 18.274L1.57659 18.1722L1.51778 18.0698L1.46 17.9668L1.40324 17.8632L1.34753 17.7589L1.29286 17.6541L1.23925 17.5487L1.18669 17.4428L1.13521 17.3363L1.08479 17.2292L1.03544 17.1216L0.987186 17.0134L0.940014 16.9048L0.89394 16.7956L0.84897 16.686L0.805098 16.5758L0.762342 16.4652L0.720708 16.3541L0.68019 16.2426L0.6408 16.1306L0.602538 16.0183L0.565416 15.9054L0.52944 15.7922L0.494604 15.6785L0.460926 15.5645L0.4284 15.4501L0.397032 15.3353L0.366828 15.2203L0.337794 15.1048L0.30993 14.989L0.283248 14.8729L0.257742 14.7565L0.233418 14.6398L0.210282 14.5228L0.188334 14.4055L0.16758 14.288L0.148026 14.1702L0.129666 14.0522L0.112512 13.9339L0.0965639 13.8154L0.081828 13.6967L0.068298 13.5779L0.0559801 13.4588L0.04488 13.3397L0.034998 13.2203L0.026334 13.1008L0.018894 12.9811L0.012678 12.8614L0.00768599 12.7415L0.00391803 12.6215L0.00138001 12.5015L7.79629e-05 12.3814L0 12.2612ZM11.6269 3.46019L11.5995 1.15007L11.5735 1.15258L11.4542 1.16528L11.3353 1.17913L11.2163 1.19415L11.0979 1.21029L10.9796 1.22761L10.8614 1.24608L10.7435 1.26569L10.6258 1.28647L10.5087 1.30832L10.3914 1.33141L10.2749 1.35553L10.1583 1.38086L10.0423 1.40728L9.92634 1.43486L9.81096 1.46351L9.69588 1.4933L9.5811 1.52421L9.46668 1.55623L9.3528 1.58933L9.2391 1.62356L9.126 1.65886L9.0132 1.69528L8.901 1.73271L8.78898 1.77132L8.67756 1.81096L8.56668 1.85165L8.4561 1.89346L8.34612 1.93628L8.23674 1.98013L8.12766 2.02511L8.01912 2.07112L7.91112 2.11817L7.80372 2.16621L7.69686 2.2153L7.5906 2.26537L7.4847 2.31655L7.37958 2.36867L7.275 2.4218L7.17102 2.47593L7.06764 2.53106L6.96498 2.58714L6.86274 2.64425L6.76116 2.70236L6.66048 2.76129L6.5601 2.82137L6.46068 2.88226L6.36192 2.94409L6.26364 3.00693L6.16614 3.07069L6.06936 3.13538L5.97348 3.20084L5.87796 3.26745L5.7834 3.33478L5.68956 3.40303L5.59638 3.47222L5.50404 3.54224L5.41254 3.61309L5.32158 3.68494L5.23164 3.75748L5.14236 3.83096L5.05392 3.90525L4.96626 3.9804L4.8795 4.05627L4.79339 4.1331L4.70826 4.21061L4.62386 4.28902L4.54043 4.36809L4.45777 4.44802L4.37603 4.52866L4.29512 4.61011L4.21499 4.69239L4.13592 4.77524L4.05773 4.8588L3.98024 4.94334L3.90383 5.02842L3.82835 5.1141L3.75364 5.20068L3.68002 5.2878L3.60722 5.3757L3.53539 5.4642L3.46451 5.55342L3.39455 5.64324L3.32562 5.73366L3.25759 5.82474L3.1905 5.91654L3.12449 6.00876L3.05936 6.10176L2.99527 6.19524L2.93216 6.28932L2.87001 6.384L2.80891 6.47922L2.7488 6.57492L2.68971 6.67122L2.63167 6.768L2.57459 6.86538L2.51853 6.9633L2.46358 7.06158L2.40961 7.1604L2.35667 7.25976L2.3048 7.35954L2.25396 7.4598L2.20421 7.56042L2.15549 7.66152L2.10785 7.76304L2.06125 7.86504L2.01575 7.96734L1.97129 8.07012L1.92791 8.17326L1.88564 8.2767L1.84442 8.38056L1.80429 8.48478L1.76526 8.5893L1.72731 8.69418L1.69048 8.7993L1.65472 8.90484L1.62006 9.01062L1.58651 9.1167L1.55408 9.22296L1.52272 9.32964L1.4925 9.43644L1.46338 9.54354L1.43537 9.65082L1.40847 9.7584L1.38269 9.8661L1.35803 9.97404L1.33449 10.0822L1.31207 10.1905L1.29077 10.2989L1.27058 10.4075L1.25153 10.5162L1.23359 10.6251L1.21679 10.7341L1.2011 10.8431L1.18655 10.9523L1.17311 11.0616L1.16081 11.1709L1.14963 11.2804L1.13958 11.3898L1.13065 11.4992L1.12285 11.6088L1.11618 11.7184L1.11063 11.8279L1.10621 11.9374L1.10291 12.0469L1.10074 12.1564L1.09968 12.2659L1.09975 12.3753L1.10094 12.4846L1.10325 12.5939L1.10668 12.7031L1.11122 12.8122L1.11688 12.9212L1.12365 13.0301L1.13153 13.1389L1.14053 13.2475L1.15063 13.3559L1.16183 13.4643L1.17415 13.5724L1.18756 13.6804L1.20206 13.7882L1.21767 13.8958L1.23437 14.0032L1.25216 14.1103L1.27104 14.2172L1.291 14.3239L1.31204 14.4302L1.33417 14.5364L1.35736 14.6423L1.38163 14.7479L1.40697 14.8532L1.43337 14.9582L1.46084 15.0629L1.48935 15.1672L1.51893 15.2712L1.54955 15.3749L1.58122 15.4782L1.61393 15.5812L1.64767 15.6837L1.68245 15.7859L1.71826 15.8876L1.75508 15.989L1.79292 16.09L1.83179 16.1905L1.87165 16.2906L1.91252 16.3903L1.95439 16.4894L1.99725 16.5881L2.0411 16.6864L2.08594 16.7842L2.13175 16.8815L2.17852 16.9783L2.22627 17.0745L2.27497 17.1703L2.32463 17.2655L2.37524 17.3602L2.42679 17.4543L2.47927 17.5478L2.53268 17.6408L2.58702 17.7333L2.64228 17.8251L2.69842 17.9164L2.75551 18.007L2.81346 18.097L2.87232 18.1865L2.93206 18.2753L2.99267 18.3634L3.05414 18.451L3.1165 18.5378L3.17969 18.6241L3.24376 18.7096L3.30863 18.7945L3.37437 18.8786L3.4409 18.9621L3.50827 19.0449L3.57646 19.127L3.64542 19.2084L3.7152 19.289L3.78575 19.369L3.85711 19.4482L3.92922 19.5266L4.00208 19.6043L4.07571 19.6812L4.15008 19.7574L4.22521 19.8328L4.30105 19.9074L4.37764 19.9813L4.4549 20.0543L4.53289 20.1266L4.61159 20.198L4.69096 20.2687L4.77097 20.3384L4.85172 20.4074L4.93314 20.4756L5.0151 20.5429L5.09784 20.6095L5.18112 20.675L5.26506 20.7398L5.3496 20.8038L5.4348 20.8669L5.52054 20.929L5.60688 20.9903L5.69376 21.0508L5.7813 21.1103L5.86932 21.169L5.958 21.2267L6.0471 21.2836L6.1368 21.3395L6.22704 21.3946L6.3177 21.4487L6.40896 21.502L6.50064 21.5542L6.59286 21.6056L6.6855 21.656L6.77868 21.7055L6.87222 21.754L6.96624 21.8017L7.06074 21.8483L7.15566 21.894L7.25094 21.9388L7.34664 21.9826L7.4427 22.0253L7.53924 22.0672L7.63608 22.1081L7.73334 22.148L7.8309 22.187L7.92882 22.2249L8.0271 22.2619L8.12562 22.2979L8.2245 22.3329L8.32374 22.3669L8.42322 22.4L8.523 22.432L8.62296 22.463L8.72334 22.4931L8.82384 22.5221L8.92464 22.5502L9.02568 22.5772L9.1269 22.6033L9.22836 22.6283L9.32994 22.6523L9.43182 22.6753L9.53382 22.6973L9.63594 22.7183L9.7383 22.7383L9.84078 22.7572L9.94338 22.7752L10.0461 22.7921L10.1489 22.808L10.2519 22.8229L10.355 22.8367L10.4581 22.8496L10.5613 22.8614L10.6645 22.8722L10.7678 22.8821L10.8712 22.8908L10.9746 22.8986L11.078 22.9054L11.1814 22.9111L11.2848 22.9158L11.3882 22.9195L11.4916 22.9222L11.5949 22.9238L11.6982 22.9245L11.8015 22.9241L11.9047 22.9228L12.0077 22.9204L12.1108 22.917L12.2137 22.9126L12.3166 22.9072L12.4192 22.9008L12.5218 22.8934L12.6243 22.885L12.7266 22.8756L12.8287 22.8652L12.9307 22.8538L13.0325 22.8414L13.1341 22.828L13.2355 22.8136L13.3367 22.7983L13.4377 22.7819L13.5385 22.7646L13.6391 22.7463L13.7393 22.727L13.8394 22.7068L13.9391 22.6856L14.0386 22.6634L14.1378 22.6403L14.2367 22.6162L14.3353 22.5911L14.4336 22.5651L14.5315 22.5382L14.6292 22.5103L14.7265 22.4814L14.8234 22.4516L14.92 22.421L15.0162 22.3893L15.112 22.3568L15.2074 22.3233L15.3025 22.2889L15.3971 22.2536L15.4913 22.2173L15.5851 22.1803L15.6784 22.1423L15.7712 22.1033L15.8637 22.0636L15.9557 22.0229L16.0471 21.9814L16.1382 21.9389L16.2287 21.8956L16.3187 21.8515L16.4083 21.8065L16.4973 21.7606L16.5858 21.7139L16.6738 21.6664L16.7612 21.618L16.8481 21.5688L16.9343 21.5188L17.0202 21.4679L17.1053 21.4163L17.19 21.3638L17.2739 21.3106L17.3573 21.2566L17.4402 21.2017L17.5225 21.146L17.6039 21.0898L17.6849 21.0326L17.7652 20.9747L17.8449 20.9161L17.924 20.8566L18.0023 20.7965L18.0801 20.7356L18.1571 20.674L18.2334 20.6117L18.3092 20.5487L18.3842 20.4849L18.4584 20.4205L18.532 20.3554L18.6049 20.2896L18.677 20.2231L18.7485 20.156L18.8191 20.0882L18.8891 20.0197L18.9584 19.9506L19.0268 19.8809L19.0946 19.8105L19.1615 19.7396L19.2276 19.6681L19.2931 19.5957L19.3577 19.523L19.4216 19.4495L19.4846 19.3756L19.5469 19.301L19.6083 19.226L19.6689 19.1503L19.7288 19.0741L19.7878 18.9974L19.846 18.92L19.9033 18.8423L19.9599 18.7639L20.0157 18.685L20.0704 18.6058L20.1245 18.526L20.1776 18.4457L20.2299 18.3649L20.2814 18.2836L20.332 18.202L20.3816 18.1199L20.4305 18.0372L20.4784 17.9543L20.5255 17.8709L20.5718 17.787L20.617 17.7029L20.6615 17.6182L20.705 17.5331L20.7476 17.4479L20.7893 17.3621L20.8302 17.2759L20.8701 17.1895L20.9091 17.1028L20.9472 17.0156L20.9843 16.9283L21.0206 16.8404L21.056 16.7524L21.0904 16.6642L21.1238 16.5754L21.1564 16.4866L21.188 16.3974L21.2188 16.308L21.2485 16.2183L21.2773 16.1286L21.3052 16.0382L21.3321 15.948L21.3581 15.8575L21.3832 15.7668L21.4073 15.6758L21.4304 15.5848L21.4526 15.4934L21.4739 15.4019L21.4942 15.3104L21.5136 15.2186L21.532 15.1268L21.5494 15.0347L21.5659 14.9428L21.5815 14.8505L21.596 14.7581L21.6097 14.6658L21.6224 14.5733L21.6341 14.4809L21.6449 14.3881L21.6547 14.2956L21.6635 14.2028L21.6714 14.1103L21.6784 14.0174L21.6844 13.9249L21.6894 13.832L21.6935 13.7392L21.6966 13.6465L21.6988 13.5541L21.7 13.4612L21.7003 13.3686L21.6997 13.2761L21.698 13.1836L21.6955 13.0912L21.6919 12.9991L21.6875 12.9066L21.6821 12.8146L21.6757 12.7225L21.6685 12.6308L21.6602 12.5389L21.6511 12.4474L21.641 12.3558L21.63 12.2645L21.6181 12.1733L21.6052 12.0824L21.5914 11.9915L21.5767 11.9009L21.5611 11.8107L21.5445 11.7204L21.527 11.6304L21.5086 11.5408L21.4893 11.4511L21.4692 11.362L21.448 11.2729L21.4261 11.1843L21.4031 11.0956L21.3794 11.0076L21.3547 10.9197L21.3292 10.832L21.3028 10.7448L21.2755 10.6579L21.2472 10.5711L21.2182 10.4849L21.1882 10.3988L21.1575 10.3133L21.1258 10.2279L21.0934 10.1431L21.0599 10.0585L21.0257 9.97428L20.9908 9.89064L20.9549 9.80736L20.9181 9.7242L20.8807 9.64182L20.8423 9.5595L20.8031 9.47796L20.7632 9.39672L20.7223 9.31578L20.6808 9.2355L20.6384 9.15558L20.5951 9.07602L20.5513 8.99724L20.5065 8.91864L20.461 8.8407L20.4146 8.76312L20.3677 8.68632L20.3198 8.6097L20.2713 8.5338L20.2219 8.45826L20.1719 8.38338L20.1212 8.30916L20.0696 8.23524L20.0173 8.16198L19.9644 8.08926L19.9107 8.0172L19.8563 7.94556L19.8013 7.87464L19.7455 7.8042L19.6891 7.73442L19.6319 7.66524L19.5741 7.5966L19.5156 7.52862L19.4565 7.46124L19.3968 7.39452L19.3364 7.3284L19.2752 7.26282L19.2137 7.19814L19.1512 7.13382L19.0883 7.0704L19.0248 7.00746L18.9607 6.9453L18.8958 6.88362L18.8306 6.8229L18.7646 6.76266L18.6981 6.70314L18.6312 6.6444L18.5636 6.58632L18.4953 6.52878L18.4266 6.47208L18.3574 6.4161L18.2876 6.36084L18.2173 6.30624L18.1466 6.25254L18.0752 6.19926L18.0035 6.147L17.9312 6.0954L17.8583 6.04446L17.7852 5.99436L17.7113 5.94486L17.6374 5.89638L17.5626 5.84844L17.4876 5.80134L17.412 5.75496L17.3361 5.70936L17.2598 5.6646L17.1832 5.62068L17.1058 5.5773L17.0285 5.53494L16.9505 5.49324L16.8722 5.45238L16.7936 5.41236L16.7145 5.37306L16.6351 5.33454L16.5554 5.29692L16.4753 5.26002L16.3951 5.22402L16.3144 5.18874L16.2308 5.15322L16.1522 5.12076L16.0704 5.08788L15.9887 5.05602L15.9064 5.02476L15.8241 4.99452L15.7414 4.965L15.6586 4.93638L15.5753 4.90848L15.4921 4.88154L15.4084 4.85538L15.3246 4.83006L15.2407 4.80564L15.1565 4.78198L15.0719 4.75913L14.9875 4.73721L14.9029 4.71613L14.8178 4.69582L14.7329 4.67644L14.6477 4.65784L14.5624 4.64014L14.4769 4.62325L14.3914 4.60724L14.3057 4.59206L14.2201 4.57776L14.1341 4.56426L14.0483 4.55165L13.9623 4.53988L13.8762 4.52896L13.7901 4.51889L13.704 4.50968L13.6178 4.50132L13.5316 4.49381L13.4453 4.48714L13.359 4.48132L13.2729 4.47637L13.1867 4.47226L13.1003 4.46899L13.0143 4.46657L12.9281 4.465L12.842 4.46428L12.7558 4.4644L12.7385 4.4646L12.7657 6.75792L12.8146 6.75768L12.8776 6.75804L12.9405 6.759L13.0035 6.76062L13.0666 6.76284L13.1296 6.76572L13.1927 6.7692L13.2558 6.77328L13.3189 6.77802L13.382 6.78336L13.4452 6.78936L13.5082 6.79596L13.5713 6.80322L13.6344 6.81108L13.6974 6.81954L13.7604 6.82872L13.8233 6.83844L13.8862 6.84882L13.9491 6.85986L14.0119 6.8715L14.0746 6.8838L14.1372 6.8967L14.1998 6.9102L14.2622 6.92436L14.3246 6.93918L14.3869 6.9546L14.449 6.97062L14.511 6.9873L14.5729 7.00458L14.6347 7.02252L14.6964 7.04106L14.7579 7.0602L14.8192 7.08L14.8804 7.1004L14.9415 7.12146L15.0023 7.14312L15.0631 7.16538L15.1235 7.18824L15.1839 7.21176L15.244 7.23588L15.304 7.2606L15.3637 7.28598L15.4232 7.3119L15.4825 7.33848L15.5415 7.3656L15.6003 7.39338L15.6589 7.42176L15.7172 7.45074L15.7753 7.48032L15.8332 7.5105L15.8907 7.54122L15.948 7.5726L16.005 7.60452L16.0617 7.63704L16.1182 7.67016L16.1743 7.70388L16.2301 7.73814L16.2856 7.773L16.3408 7.80846L16.3957 7.84446L16.4503 7.881L16.5045 7.91814L16.5584 7.95588L16.6119 7.9941L16.6651 8.03292L16.7179 8.07234L16.7704 8.11224L16.8224 8.15274L16.8741 8.19378L16.9254 8.2353L16.9763 8.27742L17.0269 8.32008L17.077 8.36322L17.1268 8.4069L17.1761 8.45112L17.225 8.49588L17.2734 8.54112L17.3215 8.5869L17.369 8.63316L17.4162 8.67996L17.4629 8.72724L17.5092 8.77506L17.555 8.8233L17.6003 8.87208L17.6452 8.92134L17.6896 8.97108L17.7335 9.02124L17.777 9.07194L17.8199 9.12306L17.8624 9.17466L17.9044 9.22674L17.9458 9.27924L17.9867 9.33222L18.0272 9.38562L18.0671 9.4395L18.1064 9.49374L18.1453 9.54846L18.1836 9.6036L18.2214 9.65916L18.2586 9.71514L18.2953 9.77148L18.3314 9.8283L18.367 9.88548L18.402 9.94302L18.4364 10.001L18.4703 10.0594L18.5036 10.118L18.5363 10.1771L18.5684 10.2366L18.5999 10.2964L18.6309 10.3566L18.6612 10.4171L18.691 10.478L18.7201 10.5392L18.7486 10.6007L18.7765 10.6627L18.8038 10.7248L18.8305 10.7873L18.8566 10.8502L18.882 10.9133L18.9068 10.9767L18.9309 11.0404L18.9544 11.1044L18.9773 11.1686L18.9995 11.2332L19.0211 11.298L19.042 11.3631L19.0623 11.4284L19.0819 11.494L19.1009 11.5598L19.1192 11.6258L19.1368 11.6921L19.1537 11.7586L19.17 11.8253L19.1856 11.8922L19.2005 11.9594L19.2148 12.0267L19.2283 12.0942L19.2412 12.1619L19.2533 12.2298L19.2649 12.2978L19.2757 12.366L19.2857 12.4344L19.2952 12.5029L19.3039 12.5715L19.3119 12.6403L19.3192 12.7093L19.3258 12.7783L19.3317 12.8474L19.3369 12.9167L19.3414 12.986L19.3451 13.0555L19.3481 13.125L19.3505 13.1947L19.3521 13.2643L19.353 13.3341L19.3532 13.4039L19.3526 13.4738L19.3514 13.5437L19.3494 13.6136L19.3467 13.6837L19.3433 13.7536L19.3391 13.8236L19.3343 13.8937L19.3287 13.9637L19.3223 14.0338L19.3153 14.1038L19.3075 14.1737L19.2991 14.2438L19.2898 14.3137L19.2799 14.3836L19.2692 14.4534L19.2578 14.5232L19.2457 14.5929L19.2328 14.6626L19.2192 14.7322L19.2049 14.8016L19.1898 14.8711L19.1741 14.9404L19.1576 15.0095L19.1404 15.0786L19.1224 15.1476L19.1038 15.2164L19.0844 15.2851L19.0643 15.3536L19.0435 15.422L19.0219 15.4903L18.9996 15.5584L18.9766 15.6263L18.9529 15.694L18.9286 15.7616L18.9034 15.8289L18.8776 15.896L18.851 15.963L18.8238 16.0297L18.7958 16.0963L18.7672 16.1625L18.7378 16.2286L18.7078 16.2944L18.677 16.3599L18.6455 16.4252L18.6134 16.4902L18.5805 16.555L18.547 16.6195L18.5128 16.6836L18.4778 16.7475L18.4423 16.8111L18.406 16.8744L18.3691 16.9373L18.3314 17L18.2932 17.0623L18.2542 17.1244L18.2146 17.186L18.1743 17.2473L18.1333 17.3082L18.0917 17.3688L18.0495 17.429L18.0066 17.4889L17.963 17.5483L17.9189 17.6074L17.8741 17.6661L17.8286 17.7244L17.7825 17.7822L17.7358 17.8397L17.6884 17.8967L17.6405 17.9533L17.5919 18.0095L17.5427 18.0652L17.4929 18.1205L17.4425 18.1753L17.3915 18.2297L17.3399 18.2836L17.2877 18.337L17.235 18.39L17.1816 18.4424L17.1277 18.4945L17.0732 18.5459L17.0182 18.5969L16.9625 18.6474L16.9063 18.6973L16.8496 18.7468L16.7923 18.7957L16.7345 18.8441L16.6762 18.892L16.6173 18.9392L16.5578 18.986L16.4979 19.0322L16.4375 19.0778L16.3765 19.1229L16.315 19.1674L16.2531 19.2114L16.1906 19.2547L16.1277 19.2975L16.0642 19.3397L16.0003 19.3813L15.9359 19.4222L15.8711 19.4626L15.8058 19.5023L15.7401 19.5415L15.6739 19.58L15.6073 19.6179L15.5402 19.6552L15.4727 19.6918L15.4048 19.7278L15.3364 19.7632L15.2677 19.7978L15.1985 19.8319L15.129 19.8653L15.059 19.898L14.9887 19.93L14.918 19.9614L14.847 19.9921L14.7755 20.0221L14.7038 20.0515L14.6317 20.0801L14.5592 20.1081L14.4864 20.1354L14.4133 20.162L14.3398 20.1878L14.266 20.213L14.192 20.2375L14.1176 20.2612L14.0429 20.2842L13.968 20.3065L13.8928 20.3281L13.8173 20.3489L13.7415 20.369L13.6655 20.3884L13.5892 20.4071L13.5127 20.425L13.4359 20.4422L13.359 20.4586L13.2818 20.4743L13.2044 20.4892L13.1268 20.5034L13.049 20.5169L12.971 20.5295L12.8929 20.5414L12.8145 20.5526L12.736 20.563L12.6573 20.5726L12.5785 20.5814L12.4996 20.5895L12.4205 20.5969L12.3413 20.6034L12.262 20.6092L12.1825 20.6141L12.103 20.6183L12.0233 20.6218L11.9436 20.6244L11.8638 20.6263L11.7839 20.6273L11.704 20.6276L11.624 20.6272L11.544 20.6258L11.4639 20.6238L11.3838 20.6209L11.3037 20.6173L11.2235 20.6128L11.1434 20.6076L11.0633 20.6016L10.9832 20.5948L10.9031 20.5871L10.823 20.5787L10.7429 20.5696L10.663 20.5596L10.583 20.5488L10.5031 20.5372L10.4233 20.5249L10.3436 20.5117L10.2639 20.4977L10.1843 20.483L10.1049 20.4675L10.0256 20.4511L9.94632 20.434L9.86724 20.4161L9.78828 20.3974L9.70944 20.3779L9.63078 20.3576L9.55224 20.3366L9.47388 20.3147L9.39576 20.2921L9.31776 20.2687L9.23994 20.2445L9.16236 20.2195L9.08502 20.1938L9.0078 20.1673L8.93088 20.14L8.8542 20.1119L8.7777 20.083L8.7015 20.0534L8.62554 20.023L8.54982 19.9918L8.4744 19.9599L8.39928 19.9273L8.32446 19.8938L8.24988 19.8596L8.17566 19.8247L8.10174 19.789L8.02812 19.7525L7.9548 19.7153L7.8819 19.6774L7.8093 19.6387L7.73706 19.5992L7.66518 19.5591L7.59366 19.5182L7.5225 19.4766L7.45176 19.4342L7.38138 19.3912L7.31142 19.3474L7.24188 19.3029L7.17276 19.2577L7.10406 19.2118L7.03578 19.1651L6.96792 19.1179L6.90054 19.0699L6.83358 19.0211L6.7671 18.9718L6.70104 18.9217L6.63552 18.8709L6.57048 18.8195L6.50592 18.7673L6.44184 18.7146L6.37824 18.6611L6.31518 18.6071L6.25266 18.5523L6.19062 18.4969L6.12912 18.4409L6.06822 18.3842L6.0078 18.3269L5.94792 18.269L5.88864 18.2104L5.82996 18.1513L5.77182 18.0914L5.71422 18.0311L5.65722 17.9701L5.60088 17.9085L5.54508 17.8463L5.48988 17.7835L5.43534 17.7202L5.38134 17.6563L5.32806 17.5918L5.27532 17.5267L5.2233 17.4611L5.17188 17.3949L5.12112 17.3282L5.07102 17.2609L5.02152 17.1932L4.97274 17.1248L4.92468 17.056L4.87722 16.9867L4.83048 16.9168L4.78444 16.8465L4.73908 16.7756L4.69442 16.7043L4.65048 16.6325L4.60724 16.5602L4.56473 16.4875L4.52293 16.4142L4.48186 16.3406L4.44153 16.2664L4.40194 16.1919L4.36308 16.1169L4.32497 16.0415L4.28762 15.9656L4.25103 15.8894L4.2152 15.8128L4.18013 15.7357L4.14584 15.6583L4.11232 15.5804L4.07959 15.5022L4.04763 15.4237L4.01647 15.3448L3.9861 15.2654L3.95653 15.1858L3.92775 15.1059L3.89978 15.0256L3.87263 14.945L3.84628 14.864L3.82075 14.7828L3.79604 14.7013L3.77216 14.6195L3.7491 14.5374L3.72687 14.455L3.70548 14.3723L3.68492 14.2895L3.6652 14.2063L3.64633 14.1229L3.6283 14.0393L3.61112 13.9555L3.5948 13.8714L3.57932 13.7871L3.56471 13.7026L3.55096 13.618L3.53806 13.5331L3.52603 13.4481L3.51487 13.3629L3.50458 13.2775L3.49516 13.192L3.48661 13.1064L3.47894 13.0206L3.47215 12.9347L3.46623 12.8487L3.46119 12.7625L3.45704 12.6763L3.45377 12.59L3.45139 12.5036L3.44989 12.4172L3.44927 12.3306L3.44956 12.244L3.45072 12.1574L3.45278 12.0707L3.45573 11.984L3.45958 11.8973L3.46432 11.8106L3.46994 11.7238L3.47647 11.6371L3.48389 11.5504L3.4922 11.4637L3.50142 11.377L3.51152 11.2904L3.52253 11.2039L3.53443 11.1173L3.54722 11.0309L3.56091 10.9445L3.57549 10.8583L3.59097 10.7721L3.60734 10.686L3.62461 10.6L3.64277 10.5142L3.66182 10.4285L3.68177 10.3429L3.7026 10.2575L3.72432 10.1722L3.74693 10.0871L3.77043 10.0022L3.79481 9.91746L3.82009 9.83292L3.84623 9.74856L3.87327 9.66438L3.90118 9.5805L3.92997 9.4968L3.95964 9.41334L3.99018 9.33012L4.02159 9.24714L4.05387 9.16446L4.08702 9.08202L4.12103 8.99988L4.15591 8.91804L4.19165 8.83644L4.22825 8.7552L4.26569 8.67426L4.304 8.59362L4.34315 8.51334L4.38315 8.43342L4.42399 8.3538L4.46567 8.2746L4.50819 8.1957L4.55155 8.11722L4.59573 8.0391L4.64074 7.96134L4.68657 7.88406L4.73323 7.80714L4.78069 7.73064L4.82898 7.65456L4.87806 7.5789L4.92798 7.50372L4.97862 7.42896L5.03016 7.35468L5.08242 7.28082L5.13546 7.20744L5.18934 7.1346L5.24394 7.06218L5.29938 6.9903L5.35554 6.9189L5.41248 6.84804L5.47014 6.77772L5.52858 6.70788L5.5878 6.63858L5.64774 6.56982L5.7084 6.50166L5.76984 6.43404L5.83194 6.36696L5.89482 6.30048L5.95842 6.23454L6.02268 6.16926L6.08766 6.10452L6.15336 6.04038L6.21978 5.9769L6.28686 5.91396L6.3546 5.85174L6.42306 5.79006L6.49218 5.7291L6.5619 5.66874L6.63234 5.60904L6.70344 5.55L6.77514 5.49162L6.8475 5.4339L6.92052 5.3769L6.99414 5.32056L7.06836 5.26494L7.14324 5.20998L7.21866 5.15574L7.29468 5.10222L7.37136 5.04942L7.44858 4.99734L7.52634 4.94604L7.60476 4.8954L7.68366 4.84554L7.76316 4.79642L7.8432 4.74806L7.92378 4.70045L8.00484 4.65362L8.0865 4.60755L8.16864 4.56226L8.25126 4.51775L8.33442 4.47404L8.41806 4.43111L8.50218 4.38899L8.58678 4.34767L8.67186 4.30715L8.75742 4.26746L8.8434 4.22858L8.92986 4.19052L9.01674 4.1533L9.10404 4.11691L9.19176 4.08135L9.27984 4.04664L9.3684 4.01278L9.45732 3.97976L9.54666 3.94761L9.63636 3.91631L9.72642 3.88588L9.81684 3.85632L9.90756 3.82763L9.9987 3.79982L10.0901 3.77288L10.1819 3.74684L10.274 3.72167L10.3664 3.6974L10.4591 3.67403L10.5521 3.65155L10.6453 3.62998L10.7389 3.60931L10.8326 3.58954L10.9267 3.57069L11.021 3.55276L11.1155 3.53573L11.2102 3.51963L11.3052 3.50445L11.4004 3.49019L11.4957 3.47687L11.5912 3.46447L11.6269 3.46019ZM11.6672 6.86166L11.6397 4.54313L11.5614 4.55408L11.4772 4.5667L11.393 4.58015L11.3093 4.59438L11.2255 4.60948L11.1421 4.62535L11.0588 4.64203L10.9759 4.6595L10.8932 4.67779L10.8106 4.6969L10.7283 4.71679L10.6463 4.73746L10.5644 4.75897L10.4858 4.78044L10.402 4.80426L10.321 4.82808L10.2404 4.85268L10.1603 4.878L10.0803 4.90416L10.0006 4.9311L9.9213 4.95876L9.8424 4.98714L9.7638 5.01636L9.68556 5.04624L9.60762 5.07696L9.53028 5.10834L9.45294 5.14056L9.3762 5.17344L9.29982 5.20704L9.22398 5.24136L9.14832 5.27646L9.07308 5.31228L8.9985 5.3487L8.92404 5.38596L8.85036 5.42382L8.7768 5.46252L8.70396 5.5017L8.63124 5.54184L8.55924 5.5824L8.48772 5.62374L8.41656 5.6658L8.34594 5.70846L8.27568 5.7519L8.20614 5.79582L8.1369 5.84052L8.06832 5.88582L8.00022 5.93172L7.9326 5.97834L7.8654 6.02562L7.79898 6.07332L7.73292 6.12186L7.6674 6.17094L7.60248 6.22062L7.53816 6.27084L7.47426 6.32178L7.41108 6.3732L7.34844 6.42522L7.28628 6.47796L7.2249 6.53106L7.16394 6.58488L7.10358 6.63924L7.04388 6.69408L6.98484 6.74946L6.92622 6.8055L6.86844 6.8619L6.8112 6.9189L6.7545 6.9765L6.69852 7.03452L6.64314 7.09314L6.58842 7.15218L6.53436 7.2117L6.4809 7.27176L6.42804 7.33236L6.37608 7.39326L6.3246 7.45476L6.27378 7.51674L6.22368 7.57908L6.1743 7.64184L6.12546 7.7052L6.0774 7.76886L6.03 7.833L5.98332 7.89756L5.9373 7.96254L5.89206 8.02782L5.84748 8.09358L5.80356 8.15976L5.76036 8.2263L5.71794 8.29314L5.67624 8.3604L5.6352 8.42814L5.59488 8.49606L5.55534 8.5644L5.51646 8.6331L5.47842 8.70198L5.44104 8.77134L5.40432 8.84106L5.3685 8.9109L5.33334 8.98122L5.29896 9.05178L5.2653 9.12252L5.23242 9.19368L5.20026 9.26502L5.16888 9.33666L5.13822 9.40854L5.1084 9.48066L5.0793 9.55302L5.05092 9.62568L5.02332 9.69852L4.99656 9.77154L4.97046 9.84486L4.94526 9.91824L4.92072 9.99192L4.89702 10.0658L4.87404 10.1398L4.8519 10.214L4.83048 10.2883L4.8099 10.3628L4.79005 10.4375L4.77099 10.5122L4.75272 10.5872L4.73524 10.6622L4.71853 10.7374L4.7026 10.8127L4.68747 10.888L4.67311 10.9634L4.65954 11.039L4.64677 11.1146L4.63476 11.1904L4.62356 11.266L4.61312 11.3419L4.60349 11.4177L4.59463 11.4936L4.58656 11.5695L4.57928 11.6455L4.57278 11.7214L4.56707 11.7973L4.56214 11.8733L4.55798 11.9493L4.55462 12.0252L4.55204 12.1011L4.55023 12.1769L4.54921 12.2528L4.54897 12.3286L4.5495 12.4043L4.55081 12.48L4.5529 12.5556L4.55576 12.6311L4.55939 12.7066L4.5638 12.7819L4.56897 12.8571L4.57492 12.9323L4.58162 13.0073L4.5891 13.0822L4.59734 13.1569L4.60633 13.2316L4.61609 13.3061L4.62661 13.3804L4.63788 13.4546L4.6499 13.5285L4.66267 13.6024L4.6762 13.676L4.69046 13.7494L4.70547 13.8227L4.72121 13.8958L4.73771 13.9687L4.75492 14.0412L4.77288 14.1136L4.79156 14.1858L4.81098 14.2577L4.83108 14.3294L4.85196 14.4008L4.8735 14.472L4.89582 14.5429L4.9188 14.6136L4.9425 14.6839L4.96692 14.7539L4.992 14.8237L5.0178 14.8932L5.04432 14.9624L5.0715 15.0312L5.09934 15.0997L5.1279 15.1679L5.15712 15.2358L5.18706 15.3033L5.2176 15.3705L5.24886 15.4373L5.28078 15.5038L5.3133 15.5699L5.34654 15.6356L5.38038 15.701L5.41488 15.766L5.45004 15.8305L5.4858 15.8947L5.52222 15.9585L5.55924 16.0219L5.59692 16.0848L5.6352 16.1474L5.67408 16.2095L5.71356 16.2712L5.7537 16.3325L5.79432 16.3932L5.83566 16.4536L5.87748 16.5135L5.91996 16.573L5.96298 16.6319L6.0066 16.6904L6.05076 16.7485L6.09552 16.8061L6.14076 16.8631L6.1866 16.9197L6.23298 16.9758L6.2799 17.0314L6.32736 17.0864L6.37536 17.1411L6.42384 17.1951L6.47286 17.2487L6.52236 17.3017L6.5724 17.3542L6.62292 17.4061L6.67398 17.4575L6.72546 17.5084L6.77748 17.5588L6.82998 17.6086L6.88284 17.6578L6.9363 17.7065L6.99012 17.7545L7.04442 17.8021L7.0992 17.849L7.1544 17.8954L7.21002 17.9413L7.26606 17.9864L7.32252 18.0311L7.3794 18.0751L7.4367 18.1186L7.49442 18.1615L7.55244 18.2037L7.61088 18.2453L7.66974 18.2864L7.72896 18.3268L7.7886 18.3667L7.84854 18.4058L7.90884 18.4444L7.9695 18.4824L8.03046 18.5197L8.09178 18.5564L8.15346 18.5925L8.21538 18.6279L8.27772 18.6627L8.34024 18.6968L8.40318 18.7304L8.46636 18.7633L8.52978 18.7954L8.59356 18.827L8.65764 18.8579L8.7219 18.8882L8.7864 18.9178L8.85126 18.9468L8.91624 18.9751L8.98152 19.0027L9.04704 19.0297L9.1128 19.0559L9.17868 19.0816L9.24486 19.1065L9.31122 19.1308L9.37776 19.1545L9.44448 19.1774L9.51144 19.1997L9.57852 19.2212L9.64578 19.2422L9.71322 19.2624L9.78078 19.282L9.84846 19.3009L9.91632 19.319L9.9843 19.3366L10.0524 19.3534L10.1206 19.3696L10.189 19.385L10.2574 19.3999L10.3259 19.414L10.3945 19.4273L10.4633 19.4401L10.532 19.4521L10.6009 19.4635L10.6697 19.4741L10.7387 19.4842L10.8077 19.4935L10.8767 19.5021L10.9457 19.51L11.0148 19.5173L11.0839 19.5238L11.153 19.5297L11.2222 19.5349L11.2913 19.5394L11.3603 19.5432L11.4294 19.5464L11.4985 19.5488L11.5675 19.5506L11.6365 19.5517L11.7054 19.5521L11.7743 19.5519L11.8431 19.5509L11.9119 19.5494L11.9805 19.5471L12.0491 19.5442L12.1176 19.5405L12.186 19.5362L12.2543 19.5313L12.3225 19.5256L12.3905 19.5193L12.4585 19.5124L12.5264 19.5047L12.5941 19.4965L12.6616 19.4875L12.729 19.478L12.7963 19.4677L12.8633 19.4568L12.9302 19.4453L12.997 19.433L13.0635 19.4202L13.1299 19.4068L13.1961 19.3926L13.262 19.3778L13.3277 19.3625L13.3933 19.3464L13.4586 19.3298L13.5237 19.3125L13.5886 19.2946L13.6532 19.276L13.7176 19.2569L13.7816 19.2371L13.8455 19.2167L13.9091 19.1957L13.9724 19.1741L14.0355 19.1519L14.0983 19.1291L14.1607 19.1057L14.2229 19.0817L14.2847 19.0571L14.3464 19.0319L14.4076 19.0062L14.4685 18.9799L14.5292 18.953L14.5894 18.9255L14.6494 18.8974L14.7091 18.8688L14.7682 18.8397L14.8273 18.8099L14.8858 18.7796L14.944 18.7487L15.0017 18.7174L15.0592 18.6855L15.1163 18.653L15.173 18.62L15.2293 18.5865L15.2852 18.5525L15.3407 18.5179L15.3959 18.4828L15.4505 18.4473L15.5048 18.4112L15.5587 18.3745L15.6121 18.3374L15.665 18.2999L15.7177 18.2618L15.7698 18.2233L15.8215 18.1843L15.8728 18.1447L15.9235 18.1048L15.9739 18.0643L16.0238 18.0234L16.0731 17.9821L16.1222 17.9402L16.1706 17.898L16.2185 17.8554L16.2662 17.8121L16.3131 17.7687L16.3597 17.7247L16.4057 17.6803L16.4512 17.6356L16.4963 17.5903L16.5409 17.5447L16.5849 17.4987L16.6283 17.4523L16.6714 17.4055L16.7139 17.3584L16.7558 17.3109L16.7973 17.2629L16.8382 17.2147L16.8785 17.1661L16.9184 17.117L16.9576 17.0678L16.9964 17.018L17.0346 16.9681L17.0723 16.9177L17.1094 16.867L17.1458 16.8161L17.1819 16.7647L17.2173 16.7132L17.2522 16.6613L17.2865 16.609L17.3201 16.5566L17.3534 16.5038L17.386 16.4507L17.418 16.3975L17.4494 16.3439L17.4803 16.2899L17.5105 16.236L17.5403 16.1815L17.5694 16.127L17.5978 16.0722L17.6258 16.017L17.6531 15.9619L17.6799 15.9062L17.7059 15.8507L17.7316 15.7946L17.7565 15.7387L17.7809 15.6822L17.8046 15.6258L17.8277 15.5692L17.8503 15.5123L17.8723 15.4552L17.8935 15.3982L17.9143 15.3407L17.9344 15.2833L17.9539 15.2257L17.9728 15.1679L17.9911 15.1099L18.0088 15.0519L18.0258 14.9938L18.0422 14.9355L18.058 14.8772L18.0733 14.8187L18.0878 14.7601L18.1018 14.7016L18.1152 14.6427L18.1279 14.5839L18.1401 14.525L18.1516 14.4662L18.1625 14.4072L18.1727 14.348L18.1824 14.289L18.1915 14.2298L18.1999 14.1706L18.2077 14.1115L18.2149 14.0523L18.2215 13.9929L18.2274 13.9339L18.2328 13.8745L18.2375 13.8152L18.2416 13.7561L18.2452 13.6969L18.248 13.6377L18.2503 13.5786L18.252 13.5193L18.253 13.4604L18.2535 13.4012L18.2533 13.3423L18.2526 13.2833L18.2512 13.2245L18.2492 13.1657L18.2467 13.1069L18.2435 13.0484L18.2397 12.9898L18.2353 12.9313L18.2304 12.8731L18.2248 12.8147L18.2186 12.7567L18.2119 12.6985L18.2045 12.6407L18.1966 12.5829L18.1881 12.5252L18.179 12.4677L18.1693 12.4104L18.1591 12.3532L18.1482 12.2962L18.1367 12.2392L18.1247 12.1825L18.1122 12.1261L18.0991 12.0697L18.0853 12.0134L18.0711 11.9576L18.0562 11.9016L18.0409 11.8461L18.0249 11.7907L18.0084 11.7356L17.9914 11.6806L17.9737 11.6258L17.9556 11.5714L17.9369 11.5171L17.9176 11.4629L17.8979 11.4092L17.8776 11.3557L17.8568 11.3024L17.8354 11.2493L17.8135 11.1965L17.7911 11.1441L17.7682 11.0918L17.7448 11.0399L17.7208 10.9883L17.6963 10.9368L17.6713 10.8856L17.6459 10.8349L17.6199 10.7843L17.5935 10.7342L17.5666 10.6844L17.5391 10.6347L17.5112 10.5856L17.4828 10.5366L17.4539 10.4881L17.4245 10.4397L17.3948 10.3919L17.3645 10.3442L17.3338 10.297L17.3026 10.2502L17.271 10.2037L17.2388 10.1574L17.2063 10.1116L17.1734 10.0663L17.14 10.0211L17.1062 9.97644L17.0719 9.9321L17.0373 9.88824L17.0021 9.84462L16.9666 9.80148L16.9307 9.7587L16.8944 9.71628L16.8577 9.6744L16.8205 9.63276L16.7831 9.59166L16.7452 9.55086L16.707 9.51066L16.6682 9.47064L16.6293 9.43122L16.5898 9.39204L16.5501 9.35346L16.5101 9.3153L16.4696 9.2775L16.4288 9.24012L16.3876 9.20328L16.3462 9.16686L16.3042 9.13074L16.2623 9.09534L16.2197 9.06012L16.177 9.0255L16.1339 8.99136L16.0904 8.95752L16.0468 8.92428L16.0029 8.89158L15.9585 8.85918L15.9138 8.8272L15.8691 8.79594L15.8238 8.76492L15.7786 8.73462L15.7329 8.70462L15.6869 8.6751L15.6407 8.64606L15.5944 8.61762L15.5476 8.58954L15.5007 8.56206L15.4534 8.53494L15.4062 8.50848L15.3586 8.48244L15.3107 8.45682L15.2626 8.43174L15.2144 8.40726L15.166 8.38314L15.1172 8.35956L15.0685 8.33652L15.0196 8.31402L14.9701 8.29188L14.9209 8.2704L14.8714 8.2494L14.8216 8.22882L14.7717 8.20884L14.7218 8.1894L14.6716 8.17044L14.6212 8.1519L14.5708 8.13402L14.5202 8.11656L14.4694 8.09964L14.4187 8.08326L14.3678 8.06742L14.3168 8.05206L14.2655 8.03718L14.2143 8.0229L14.163 8.0091L14.1116 7.99584L14.0601 7.98306L14.0084 7.97082L13.9568 7.95912L13.9052 7.94796L13.8533 7.93728L13.8014 7.92708L13.7497 7.91754L13.6977 7.90842L13.6458 7.89984L13.5937 7.89174L13.5418 7.88424L13.4896 7.87716L13.4377 7.87074L13.3856 7.86474L13.3335 7.85928L13.2815 7.85436L13.2293 7.84992L13.1774 7.84602L13.1252 7.84266L13.0733 7.83978L13.0214 7.83744L12.9692 7.83558L12.9175 7.83426L12.8656 7.83348L12.8138 7.83318L12.7784 7.8333L12.8053 10.0985L12.8213 10.0986L12.851 10.099L12.8809 10.0997L12.9107 10.1007L12.9406 10.1021L12.9706 10.1037L13.0005 10.1056L13.0305 10.1079L13.0605 10.1105L13.0906 10.1134L13.1206 10.1165L13.1507 10.12L13.1808 10.1239L13.2109 10.128L13.241 10.1324L13.2711 10.1372L13.3012 10.1423L13.3313 10.1477L13.3614 10.1535L13.3915 10.1595L13.4215 10.1659L13.4516 10.1726L13.4816 10.1796L13.5116 10.1869L13.5416 10.1945L13.5715 10.2025L13.6014 10.2108L13.6313 10.2194L13.6611 10.2283L13.6909 10.2376L13.7206 10.2472L13.7503 10.2571L13.7798 10.2673L13.8094 10.2778L13.8389 10.2886L13.8683 10.2998L13.8976 10.3112L13.9269 10.3231L13.9561 10.3352L13.9852 10.3476L14.0142 10.3604L14.0431 10.3735L14.072 10.3868L14.1007 10.4006L14.1293 10.4146L14.1579 10.4289L14.1863 10.4436L14.2146 10.4585L14.2428 10.4738L14.2709 10.4894L14.2988 10.5053L14.3267 10.5215L14.3543 10.538L14.3819 10.5549L14.4094 10.5721L14.4367 10.5895L14.4638 10.6072L14.4908 10.6253L14.5177 10.6437L14.5444 10.6624L14.5709 10.6813L14.5973 10.7006L14.6235 10.7201L14.6495 10.74L14.6754 10.7602L14.7011 10.7806L14.7266 10.8014L14.752 10.8224L14.7772 10.8437L14.8021 10.8653L14.8269 10.8872L14.8515 10.9094L14.8759 10.9319L14.9 10.9547L14.924 10.9777L14.9478 11.0011L14.9713 11.0246L14.9947 11.0485L15.0178 11.0726L15.0407 11.0971L15.0634 11.1218L15.0858 11.1467L15.1081 11.1719L15.13 11.1974L15.1517 11.2232L15.1733 11.2492L15.1945 11.2754L15.2155 11.302L15.2363 11.3287L15.2568 11.3558L15.2771 11.383L15.2971 11.4106L15.3167 11.4383L15.3362 11.4663L15.3554 11.4946L15.3743 11.5231L15.393 11.5517L15.4114 11.5807L15.4295 11.6099L15.4473 11.6393L15.4648 11.6689L15.482 11.6987L15.499 11.7288L15.5156 11.7591L15.532 11.7896L15.5481 11.8203L15.5638 11.8512L15.5793 11.8823L15.5944 11.9136L15.6092 11.9452L15.6238 11.9768L15.638 12.0088L15.6519 12.0409L15.6655 12.0731L15.6787 12.1056L15.6916 12.1382L15.7042 12.1711L15.7165 12.2041L15.7285 12.2372L15.74 12.2706L15.7513 12.3041L15.7622 12.3377L15.7728 12.3716L15.7831 12.4055L15.793 12.4397L15.8025 12.474L15.8117 12.5084L15.8206 12.5429L15.8291 12.5777L15.8372 12.6125L15.845 12.6475L15.8525 12.6826L15.8596 12.7178L15.8662 12.7531L15.8726 12.7886L15.8786 12.8242L15.8842 12.8599L15.8894 12.8957L15.8943 12.9316L15.8988 12.9676L15.9029 13.0037L15.9067 13.0399L15.9101 13.0761L15.9131 13.1125L15.9157 13.1489L15.9179 13.1854L15.9198 13.222L15.9212 13.2587L15.9224 13.2954L15.923 13.3322L15.9234 13.369L15.9233 13.4059L15.9229 13.4428L15.922 13.4798L15.9208 13.5169L15.9191 13.5539L15.9171 13.591L15.9147 13.6282L15.9119 13.6653L15.9086 13.7025L15.905 13.7397L15.9011 13.7769L15.8966 13.8141L15.8918 13.8514L15.8867 13.8886L15.8811 13.9258L15.8751 13.963L15.8687 14.0002L15.8619 14.0374L15.8547 14.0746L15.8471 14.1118L15.8391 14.1489L15.8307 14.186L15.8219 14.2231L15.8127 14.2601L15.8031 14.2971L15.7931 14.334L15.7827 14.3709L15.7719 14.4077L15.7607 14.4445L15.7491 14.4812L15.7371 14.5178L15.7247 14.5544L15.7119 14.5909L15.6986 14.6272L15.685 14.6636L15.671 14.6998L15.6566 14.7359L15.6418 14.7719L15.6266 14.8079L15.611 14.8437L15.595 14.8795L15.5786 14.915L15.5618 14.9505L15.5446 14.9859L15.5271 15.0211L15.5091 15.0562L15.4907 15.0912L15.472 15.126L15.4528 15.1607L15.4333 15.1952L15.4134 15.2296L15.3931 15.2639L15.3724 15.2979L15.3513 15.3319L15.3299 15.3656L15.308 15.3991L15.2858 15.4325L15.2632 15.4657L15.2402 15.4988L15.2169 15.5316L15.1931 15.5642L15.1691 15.5967L15.1446 15.6289L15.1198 15.661L15.0946 15.6928L15.069 15.7244L15.0431 15.7558L15.0168 15.787L14.9902 15.818L14.9631 15.8487L14.9357 15.8792L14.908 15.9095L14.8799 15.9395L14.8516 15.9692L14.8228 15.9988L14.7937 16.0281L14.7642 16.0571L14.7344 16.0859L14.7043 16.1144L14.6738 16.1426L14.643 16.1705L14.6119 16.1983L14.5804 16.2257L14.5486 16.2528L14.5165 16.2796L14.4841 16.3062L14.4513 16.3325L14.4182 16.3584L14.3849 16.3841L14.3512 16.4095L14.3172 16.4345L14.2829 16.4593L14.2483 16.4837L14.2135 16.5079L14.1782 16.5316L14.1428 16.5551L14.107 16.5782L14.071 16.6011L14.0346 16.6236L13.998 16.6457L13.9611 16.6675L13.924 16.689L13.8865 16.7101L13.8488 16.7309L13.8109 16.7513L13.7726 16.7714L13.7342 16.7911L13.6954 16.8104L13.6565 16.8295L13.6172 16.8481L13.5778 16.8663L13.5381 16.8842L13.4981 16.9016L13.458 16.9188L13.4176 16.9355L13.377 16.9519L13.3361 16.9678L13.2951 16.9834L13.2538 16.9986L13.2124 17.0134L13.1707 17.0278L13.1288 17.0418L13.0868 17.0554L13.0445 17.0686L13.0021 17.0813L12.9595 17.0938L12.9167 17.1057L12.8737 17.1173L12.8306 17.1284L12.7873 17.1391L12.7438 17.1494L12.7001 17.1593L12.6563 17.1687L12.6124 17.1778L12.5683 17.1863L12.5241 17.1945L12.4798 17.2022L12.4352 17.2096L12.3907 17.2164L12.3459 17.2228L12.3011 17.2288L12.2561 17.2344L12.211 17.2395L12.1658 17.2441L12.1205 17.2484L12.0752 17.2521L12.0297 17.2555L11.9841 17.2583L11.9385 17.2607L11.8928 17.2627L11.847 17.2642L11.8011 17.2652L11.7552 17.2658L11.7092 17.266L11.6632 17.2657L11.6171 17.2649L11.571 17.2637L11.5249 17.262L11.4787 17.2598L11.4324 17.2572L11.3861 17.2541L11.3399 17.2506L11.2936 17.2466L11.2473 17.2421L11.201 17.2372L11.1547 17.2317L11.1085 17.2258L11.0621 17.2195L11.0159 17.2127L10.9696 17.2054L10.9234 17.1976L10.8772 17.1894L10.8311 17.1807L10.7849 17.1716L10.7389 17.1619L10.6928 17.1518L10.6469 17.1412L10.601 17.1302L10.5551 17.1187L10.5093 17.1067L10.4636 17.0942L10.418 17.0813L10.3725 17.068L10.327 17.0541L10.2817 17.0398L10.2364 17.025L10.1912 17.0098L10.1462 16.994L10.1013 16.9778L10.0565 16.9612L10.0118 16.9441L9.96726 16.9265L9.92286 16.9084L9.87858 16.8899L9.83448 16.871L9.7905 16.8515L9.74664 16.8317L9.70302 16.8113L9.65946 16.7905L9.61614 16.7693L9.573 16.7476L9.53004 16.7254L9.48726 16.7028L9.44466 16.6798L9.40224 16.6562L9.36006 16.6323L9.318 16.6079L9.27624 16.583L9.23466 16.5578L9.19332 16.532L9.15216 16.5059L9.11124 16.4793L9.07056 16.4522L9.03012 16.4248L8.98998 16.3969L8.95002 16.3685L8.9103 16.3398L8.87088 16.3106L8.8317 16.281L8.79282 16.251L8.75418 16.2205L8.71584 16.1897L8.67774 16.1584L8.63994 16.1267L8.60244 16.0946L8.56524 16.0621L8.52834 16.0292L8.49174 15.9959L8.45544 15.9622L8.41944 15.9281L8.3838 15.8936L8.3484 15.8588L8.31342 15.8235L8.27874 15.7879L8.24436 15.7518L8.21034 15.7154L8.17668 15.6786L8.14338 15.6415L8.11038 15.604L8.0778 15.566L8.04552 15.5278L8.0136 15.4892L7.9821 15.4502L7.95096 15.4109L7.92018 15.3712L7.88976 15.3312L7.85976 15.2908L7.83018 15.2501L7.80096 15.2091L7.7721 15.1677L7.74366 15.126L7.71564 15.084L7.68804 15.0416L7.66086 14.999L7.63404 14.956L7.6077 14.9128L7.58172 14.8691L7.55622 14.8253L7.53114 14.7811L7.50648 14.7366L7.48224 14.6918L7.45848 14.6468L7.43514 14.6014L7.41222 14.5558L7.38978 14.51L7.36782 14.4638L7.34628 14.4174L7.32522 14.3707L7.30464 14.3238L7.28448 14.2766L7.2648 14.2292L7.2456 14.1815L7.22688 14.1336L7.20864 14.0854L7.19094 14.0371L7.17366 13.9885L7.15686 13.9397L7.14054 13.8907L7.12476 13.8414L7.10946 13.792L7.09464 13.7423L7.0803 13.6925L7.0665 13.6424L7.05324 13.5922L7.0404 13.5418L7.02816 13.4912L7.0164 13.4405L7.00512 13.3896L6.99438 13.3385L6.98418 13.2873L6.97446 13.2359L6.96528 13.1844L6.95664 13.1327L6.94854 13.081L6.94092 13.029L6.93384 12.977L6.92736 12.9248L6.92136 12.8725L6.9159 12.8201L6.91098 12.7676L6.9066 12.715L6.90276 12.6623L6.89946 12.6095L6.8967 12.5566L6.89448 12.5037L6.8928 12.4507L6.89172 12.3976L6.89118 12.3445L6.89112 12.2912L6.89166 12.238L6.8928 12.1847L6.89442 12.1313L6.89664 12.0779L6.8994 12.0245L6.9027 11.9711L6.90654 11.9177L6.91098 11.8642L6.91596 11.8108L6.92148 11.7573L6.9276 11.7038L6.93426 11.6504L6.94146 11.597L6.94926 11.5436L6.9576 11.4902L6.96654 11.4368L6.97596 11.3835L6.98598 11.3302L6.9966 11.277L7.00776 11.2238L7.01946 11.1707L7.0317 11.1177L7.04454 11.0648L7.05792 11.0119L7.0719 10.9591L7.08642 10.9064L7.10148 10.8538L7.11708 10.8012L7.13328 10.7488L7.15002 10.6965L7.1673 10.6443L7.18518 10.5923L7.2036 10.5403L7.22256 10.4885L7.24206 10.4369L7.26216 10.3854L7.2828 10.334L7.30398 10.2828L7.3257 10.2318L7.34796 10.1809L7.37082 10.1302L7.39416 10.0797L7.4181 10.0294L7.44252 9.97926L7.46754 9.92928L7.49304 9.87954L7.51914 9.83004L7.54572 9.78072L7.5729 9.73164L7.60056 9.68274L7.62876 9.63408L7.6575 9.58572L7.68678 9.53754L7.71654 9.4896L7.7469 9.44196L7.77774 9.3945L7.80906 9.34734L7.84092 9.30048L7.87332 9.25386L7.9062 9.20754L7.93962 9.16152L7.97352 9.11574L8.0079 9.07026L8.04282 9.02514L8.07822 8.98026L8.11416 8.93574L8.15058 8.89146L8.18742 8.8476L8.2248 8.80398L8.26266 8.76072L8.301 8.71782L8.33982 8.67522L8.37912 8.63304L8.4189 8.59116L8.45916 8.54964L8.49984 8.50848L8.541 8.46768L8.58264 8.42724L8.6247 8.38722L8.66724 8.34756L8.7102 8.30826L8.75358 8.26938L8.79744 8.23086L8.84178 8.19282L8.88648 8.15508L8.93166 8.11782L8.9772 8.08098L9.02322 8.0445L9.0696 8.0085L9.11646 7.97292L9.16368 7.93776L9.21132 7.90302L9.25938 7.86876L9.3078 7.83492L9.35664 7.8015L9.4059 7.76856L9.45546 7.7361L9.50544 7.70412L9.55584 7.67256L9.60654 7.64148L9.65766 7.61088L9.70908 7.58076L9.76092 7.55112L9.81306 7.52196L9.86556 7.49328L9.91842 7.46514L9.97158 7.43748L10.0251 7.4103L10.0789 7.38366L10.1331 7.3575L10.1876 7.33188L10.2424 7.30674L10.2974 7.28214L10.3528 7.25808L10.4086 7.2345L10.4645 7.21146L10.5208 7.18902L10.5773 7.16706L10.6342 7.14564L10.6912 7.12476L10.7486 7.10448L10.8062 7.08468L10.8641 7.06548L10.9222 7.04682L10.9805 7.0287L11.0392 7.01118L11.098 6.9942L11.157 6.97782L11.2163 6.96198L11.2757 6.94668L11.3354 6.93198L11.3953 6.91788L11.4554 6.90438L11.5157 6.89142L11.5762 6.87906L11.6368 6.8673L11.6672 6.86166ZM12.4123 11.2178L11.7208 11.3831L11.6801 7.95738L11.6476 7.9647L11.5985 7.97628L11.5495 7.98834L11.5008 8.00082L11.4522 8.01378L11.4039 8.02722L11.3556 8.0412L11.3078 8.05548L11.2598 8.07036L11.2125 8.08554L11.165 8.10132L11.1179 8.11752L11.071 8.13414L11.0242 8.15118L10.9779 8.16864L10.9316 8.18664L10.8856 8.205L10.8399 8.22378L10.7942 8.2431L10.7492 8.26266L10.7041 8.28282L10.6595 8.30328L10.6149 8.32428L10.5707 8.34558L10.5267 8.36736L10.4831 8.3895L10.4398 8.41206L10.3967 8.43504L10.3539 8.45838L10.3114 8.48214L10.2691 8.50632L10.2274 8.5308L10.1855 8.55582L10.1443 8.58108L10.1033 8.60676L10.0627 8.6328L10.0222 8.65926L9.9822 8.68608L9.94248 8.71326L9.90306 8.74074L9.86406 8.76858L9.82524 8.79684L9.78684 8.82546L9.7488 8.85438L9.71106 8.88366L9.67374 8.91318L9.63678 8.94312L9.60006 8.97342L9.5637 9.00408L9.52782 9.03492L9.49224 9.06618L9.45702 9.09768L9.42216 9.12954L9.38766 9.16176L9.35358 9.19422L9.31986 9.22692L9.28644 9.26004L9.2535 9.29334L9.22092 9.327L9.18876 9.36084L9.15684 9.39516L9.12546 9.42954L9.09444 9.46428L9.06378 9.49932L9.0336 9.53448L9.00372 9.57006L8.97438 9.6057L8.94528 9.64182L8.91672 9.678L8.88846 9.71454L8.86068 9.75132L8.83332 9.78822L8.80632 9.82536L8.7798 9.86274L8.75364 9.90042L8.7279 9.93822L8.70264 9.97632L8.6778 10.0145L8.65338 10.0529L8.62932 10.0916L8.6058 10.1303L8.58258 10.1695L8.5599 10.2085L8.53758 10.2479L8.51568 10.2875L8.49432 10.3271L8.47332 10.367L8.4528 10.407L8.43264 10.4473L8.41302 10.4875L8.39376 10.528L8.37498 10.5686L8.35668 10.6093L8.33874 10.6502L8.32128 10.6912L8.3043 10.7323L8.28774 10.7735L8.27166 10.8149L8.25594 10.8563L8.24076 10.8978L8.226 10.9395L8.21166 10.9813L8.1978 11.0231L8.18436 11.065L8.1714 11.107L8.15886 11.1491L8.14686 11.1911L8.13522 11.2334L8.124 11.2757L8.11332 11.318L8.10306 11.3603L8.09322 11.4028L8.08386 11.4452L8.07498 11.4878L8.06652 11.5303L8.05848 11.5728L8.05092 11.6155L8.04384 11.658L8.03718 11.7006L8.03094 11.7433L8.02518 11.7859L8.0199 11.8286L8.01504 11.8711L8.0106 11.9138L8.00664 11.9565L8.0031 11.999L8.00004 12.0416L7.9974 12.0842L7.99518 12.1267L7.99344 12.1692L7.99212 12.2116L7.99128 12.2541L7.9908 12.2965L7.99086 12.3388L7.99128 12.381L7.99218 12.4232L7.9935 12.4654L7.99524 12.5074L7.9974 12.5494L8.00004 12.5913L8.0031 12.6331L8.00658 12.6749L8.01048 12.7165L8.0148 12.7582L8.01954 12.7995L8.0247 12.841L8.03028 12.8821L8.03634 12.9233L8.04276 12.9643L8.0496 13.0052L8.05686 13.0461L8.06454 13.0867L8.07264 13.1273L8.0811 13.1676L8.09004 13.2079L8.09934 13.248L8.10906 13.288L8.11914 13.3277L8.1297 13.3675L8.14056 13.4069L8.15184 13.4464L8.16354 13.4855L8.1756 13.5245L8.18808 13.5634L8.20092 13.6019L8.21418 13.6405L8.2278 13.6788L8.24178 13.7168L8.25612 13.7548L8.27088 13.7926L8.286 13.8301L8.30148 13.8674L8.31726 13.9045L8.33352 13.9414L8.35008 13.9781L8.367 14.0146L8.38428 14.0509L8.40186 14.0869L8.41992 14.1228L8.43816 14.1583L8.45682 14.1937L8.47584 14.2288L8.49522 14.2637L8.5149 14.2984L8.53488 14.3328L8.55522 14.3669L8.57592 14.4008L8.59686 14.4345L8.61816 14.4679L8.63982 14.501L8.66172 14.5339L8.68398 14.5666L8.70648 14.5988L8.72934 14.631L8.7525 14.6628L8.7759 14.6943L8.79972 14.7256L8.82372 14.7566L8.84802 14.7872L8.87262 14.8177L8.89752 14.8478L8.9226 14.8776L8.9481 14.9072L8.97378 14.9365L8.9997 14.9654L9.02604 14.9941L9.05244 15.0223L9.0792 15.0505L9.1062 15.0782L9.13338 15.1056L9.16092 15.1327L9.18864 15.1595L9.2166 15.1861L9.2448 15.2122L9.27324 15.2381L9.30192 15.2636L9.33078 15.2888L9.35988 15.3137L9.38916 15.3383L9.41868 15.3626L9.44844 15.3865L9.47844 15.4101L9.5085 15.4333L9.53886 15.4562L9.5694 15.4789L9.60012 15.5011L9.63102 15.523L9.6621 15.5446L9.69336 15.5659L9.7248 15.5867L9.75636 15.6073L9.7881 15.6275L9.82014 15.6474L9.85218 15.6668L9.8844 15.686L9.91686 15.7049L9.94932 15.7233L9.98196 15.7414L10.0149 15.7592L10.0478 15.7766L10.0809 15.7937L10.1141 15.8104L10.1475 15.8267L10.1809 15.8427L10.2145 15.8584L10.2482 15.8737L10.2819 15.8885L10.3159 15.9031L10.3499 15.9173L10.3839 15.9312L10.4181 15.9447L10.4524 15.9578L10.4868 15.9706L10.5211 15.983L10.5557 15.995L10.5902 16.0067L10.6249 16.018L10.6596 16.029L10.6944 16.0396L10.7292 16.0498L10.7641 16.0597L10.799 16.0692L10.834 16.0784L10.869 16.0871L10.904 16.0956L10.9391 16.1036L10.9742 16.1113L11.0093 16.1187L11.0445 16.1257L11.0797 16.1323L11.1148 16.1386L11.15 16.1445L11.1853 16.15L11.2205 16.1552L11.2556 16.16L11.2908 16.1645L11.326 16.1686L11.3612 16.1724L11.3963 16.1758L11.4315 16.1788L11.4666 16.1815L11.5016 16.1839L11.5367 16.1858L11.5717 16.1875L11.6066 16.1888L11.6417 16.1897L11.6765 16.1903L11.7113 16.1905L11.7461 16.1904L11.7808 16.19L11.8155 16.1891L11.8501 16.188L11.8846 16.1866L11.919 16.1847L11.9535 16.1825L11.9877 16.18L12.022 16.1772L12.056 16.174L12.0901 16.1705L12.1241 16.1666L12.1579 16.1625L12.1917 16.158L12.2253 16.1531L12.2588 16.148L12.2923 16.1425L12.3256 16.1367L12.3588 16.1306L12.3919 16.1241L12.4249 16.1173L12.4577 16.1102L12.4903 16.1029L12.523 16.0951L12.5554 16.0871L12.5877 16.0788L12.6199 16.0702L12.6518 16.0612L12.6838 16.0519L12.7155 16.0424L12.7469 16.0325L12.7785 16.0223L12.8097 16.0119L12.8408 16.0012L12.8717 15.9902L12.9024 15.9788L12.9331 15.9672L12.9635 15.9553L12.9937 15.9431L13.0237 15.9307L13.0536 15.9179L13.0834 15.9049L13.1128 15.8917L13.1422 15.8781L13.1713 15.8643L13.2001 15.8502L13.2289 15.8359L13.2574 15.8213L13.2857 15.8064L13.3139 15.7912L13.3418 15.7759L13.3694 15.7603L13.397 15.7444L13.4243 15.7282L13.4513 15.7118L13.4781 15.6952L13.5047 15.6784L13.5311 15.6613L13.5574 15.644L13.5833 15.6265L13.609 15.6086L13.6345 15.5906L13.6597 15.5725L13.6847 15.554L13.7095 15.5353L13.7341 15.5164L13.7584 15.4973L13.7825 15.478L13.8062 15.4586L13.8298 15.4389L13.8531 15.419L13.8761 15.3989L13.899 15.3786L13.9216 15.3581L13.9439 15.3374L13.9658 15.3166L13.9877 15.2956L14.0092 15.2743L14.0305 15.253L14.0515 15.2314L14.0722 15.2096L14.0927 15.1878L14.113 15.1657L14.1328 15.1435L14.1526 15.1211L14.1719 15.0985L14.191 15.0759L14.21 15.053L14.2285 15.0301L14.2468 15.0069L14.2649 14.9837L14.2826 14.9603L14.3001 14.9367L14.3173 14.9131L14.3342 14.8892L14.3509 14.8653L14.3672 14.8414L14.3833 14.8171L14.3991 14.7929L14.4145 14.7685L14.4298 14.744L14.4447 14.7194L14.4593 14.6947L14.4737 14.6699L14.4878 14.645L14.5016 14.6201L14.5151 14.5949L14.5283 14.5699L14.5412 14.5446L14.5538 14.5193L14.5662 14.4939L14.5783 14.4683L14.59 14.4428L14.6015 14.4172L14.6126 14.3916L14.6236 14.3658L14.6341 14.3401L14.6445 14.3141L14.6545 14.2883L14.6642 14.2622L14.6736 14.2364L14.6828 14.2103L14.6917 14.1841L14.7002 14.1581L14.7085 14.1319L14.7164 14.1058L14.7242 14.0794L14.7315 14.0534L14.7387 14.0269L14.7455 14.0009L14.752 13.9745L14.7583 13.9481L14.7642 13.9219L14.7698 13.8957L14.7752 13.8692L14.7803 13.843L14.7851 13.8165L14.7896 13.7903L14.7939 13.7641L14.7979 13.7377L14.8015 13.7114L14.8049 13.6851L14.808 13.6589L14.8108 13.6328L14.8133 13.6065L14.8156 13.5804L14.8176 13.5542L14.8193 13.5281L14.8207 13.5021L14.8219 13.4761L14.8227 13.4503L14.8233 13.4242L14.8237 13.3982L14.8237 13.3725L14.8235 13.3468L14.823 13.3211L14.8222 13.2955L14.8212 13.2697L14.8199 13.2445L14.8183 13.2187L14.8165 13.1935L14.8144 13.1683L14.8121 13.1428L14.8094 13.1177L14.8066 13.0928L14.8034 13.0675L14.8001 13.0428L14.7964 13.0179L14.7926 12.9934L14.7884 12.9686L14.784 12.944L14.7794 12.9196L14.7745 12.8953L14.7694 12.871L14.764 12.8469L14.7584 12.8228L14.7525 12.799L14.7464 12.7753L14.74 12.7514L14.7335 12.728L14.7267 12.7043L14.7197 12.6811L14.7124 12.6579L14.7049 12.6349L14.6972 12.6119L14.6892 12.589L14.6811 12.5664L14.6727 12.5439L14.6641 12.5213L14.6552 12.4991L14.6462 12.4768L14.637 12.455L14.6275 12.433L14.6179 12.4114L14.608 12.3899L14.5979 12.3684L14.5876 12.3472L14.5771 12.326L14.5664 12.305L14.5556 12.2843L14.5445 12.2636L14.5333 12.2432L14.5218 12.2228L14.5101 12.2027L14.4983 12.1827L14.4863 12.1629L14.4741 12.1432L14.4617 12.1238L14.4492 12.1045L14.4365 12.0853L14.4236 12.0663L14.4106 12.0476L14.3973 12.0289L14.3839 12.0105L14.3704 11.9923L14.3566 11.9742L14.3428 11.9563L14.3287 11.9386L14.3146 11.9211L14.3002 11.9038L14.2858 11.8866L14.2711 11.8696L14.2564 11.8529L14.2415 11.8363L14.2264 11.8199L14.2112 11.8037L14.1959 11.7877L14.1805 11.7719L14.1649 11.7563L14.1492 11.7409L14.1334 11.7257L14.1175 11.7107L14.1013 11.6959L14.0852 11.6813L14.0689 11.6668L14.0525 11.6527L14.0359 11.6386L14.0193 11.6249L14.0026 11.6113L13.9858 11.5979L13.9688 11.5847L13.9518 11.5717L13.9347 11.5589L13.9175 11.5463L13.9001 11.534L13.8828 11.5219L13.8653 11.5099L13.8478 11.4982L13.8302 11.4866L13.8124 11.4753L13.7947 11.4642L13.7768 11.4533L13.7589 11.4426L13.741 11.4322L13.7229 11.4219L13.7047 11.4118L13.6866 11.402L13.6684 11.3923L13.6501 11.3829L13.6319 11.3737L13.6134 11.3647L13.595 11.3559L13.5766 11.3474L13.5581 11.339L13.5395 11.3308L13.5209 11.3228L13.5024 11.3152L13.4837 11.3077L13.465 11.3003L13.4463 11.2933L13.4276 11.2864L13.4089 11.2797L13.3901 11.2732L13.3713 11.2669L13.3526 11.2609L13.3337 11.255L13.3149 11.2494L13.2962 11.244L13.2772 11.2388L13.2585 11.2338L13.2397 11.229L13.2208 11.2244L13.202 11.22L13.1832 11.2158L13.1644 11.2118L13.1456 11.2081L13.1269 11.2045L13.1081 11.2011L13.0893 11.1979L13.0707 11.195L13.0519 11.1922L13.0333 11.1896L13.0146 11.1872L12.996 11.1851L12.9775 11.1831L12.9589 11.1814L12.9404 11.1797L12.922 11.1784L12.9035 11.1772L12.8851 11.1761L12.8668 11.1754L12.8486 11.1748L12.8303 11.1743L12.8121 11.174L12.7939 11.174L12.7759 11.1742L12.7578 11.1745L12.7399 11.1749L12.7219 11.1757L12.7042 11.1765L12.6863 11.1776L12.6686 11.1788L12.651 11.1802L12.6334 11.1818L12.616 11.1835L12.5984 11.1854L12.5812 11.1875L12.5639 11.1898L12.5467 11.1923L12.5296 11.1949L12.5126 11.1977L12.4956 11.2006L12.4789 11.2037L12.462 11.207L12.4454 11.2105L12.4288 11.2141L12.4123 11.2178Z" fill="#94A3B8"/>
<path d="M36.6045 14.6514C36.6045 14.4229 36.5693 14.2178 36.499 14.0361C36.4346 13.8486 36.3115 13.6787 36.1299 13.5264C35.9482 13.3682 35.6934 13.2129 35.3652 13.0605C35.0371 12.9082 34.6123 12.75 34.0908 12.5859C33.5107 12.3984 32.96 12.1875 32.4385 11.9531C31.9229 11.7188 31.4658 11.4463 31.0674 11.1357C30.6748 10.8193 30.3643 10.4531 30.1357 10.0371C29.9131 9.62109 29.8018 9.1377 29.8018 8.58692C29.8018 8.05371 29.9189 7.57031 30.1533 7.13672C30.3877 6.69727 30.7158 6.32227 31.1377 6.01172C31.5596 5.69531 32.0576 5.45215 32.6318 5.28223C33.2119 5.11231 33.8477 5.02735 34.5391 5.02735C35.4824 5.02735 36.3057 5.19727 37.0088 5.53711C37.7119 5.87695 38.2568 6.34277 38.6436 6.93457C39.0361 7.52637 39.2324 8.20313 39.2324 8.96484H36.6133C36.6133 8.58984 36.5342 8.26172 36.376 7.98047C36.2236 7.69336 35.9893 7.46777 35.6729 7.30371C35.3623 7.13965 34.9697 7.05762 34.4951 7.05762C34.0381 7.05762 33.6572 7.12793 33.3525 7.26856C33.0479 7.40332 32.8193 7.58789 32.667 7.82227C32.5146 8.05078 32.4385 8.30859 32.4385 8.5957C32.4385 8.8125 32.4912 9.00879 32.5967 9.18457C32.708 9.36035 32.8721 9.52441 33.0889 9.67676C33.3057 9.8291 33.5723 9.97266 33.8887 10.1074C34.2051 10.2422 34.5713 10.374 34.9873 10.5029C35.6846 10.7139 36.2969 10.9512 36.8242 11.2148C37.3574 11.4785 37.8027 11.7744 38.1602 12.1025C38.5176 12.4307 38.7871 12.8027 38.9687 13.2188C39.1504 13.6348 39.2412 14.1064 39.2412 14.6338C39.2412 15.1904 39.1328 15.6885 38.916 16.1279C38.6992 16.5674 38.3857 16.9395 37.9756 17.2441C37.5654 17.5488 37.0762 17.7803 36.5078 17.9385C35.9395 18.0967 35.3037 18.1758 34.6006 18.1758C33.9678 18.1758 33.3437 18.0937 32.7285 17.9297C32.1133 17.7598 31.5537 17.5049 31.0498 17.165C30.5518 16.8252 30.1533 16.3916 29.8545 15.8643C29.5557 15.3369 29.4062 14.7129 29.4062 13.9922H32.0518C32.0518 14.3906 32.1133 14.7275 32.2363 15.0029C32.3594 15.2783 32.5322 15.501 32.7549 15.6709C32.9834 15.8408 33.2529 15.9639 33.5635 16.04C33.8799 16.1162 34.2256 16.1543 34.6006 16.1543C35.0576 16.1543 35.4326 16.0898 35.7256 15.9609C36.0244 15.832 36.2441 15.6533 36.3848 15.4248C36.5312 15.1963 36.6045 14.9385 36.6045 14.6514ZM49.5684 10.415V12.4717H42.8887V10.415H49.5684ZM43.6709 5.20313V18H41.0342V5.20313H43.6709ZM51.4492 5.20313V18H48.8213V5.20313H51.4492ZM62.3301 15.9434V18H55.5186V15.9434H62.3301ZM56.3799 5.20313V18H53.7432V5.20313H56.3799ZM61.4424 10.415V12.4189H55.5186V10.415H61.4424ZM62.3213 5.20313V7.26856H55.5186V5.20313H62.3213ZM72.0947 15.9434V18H65.6523V15.9434H72.0947ZM66.5049 5.20313V18H63.8682V5.20313H66.5049ZM81.833 15.9434V18H75.3906V15.9434H81.833ZM76.2432 5.20313V18H73.6064V5.20313H76.2432ZM90.0068 14.6514C90.0068 14.4229 89.9717 14.2178 89.9014 14.0361C89.8369 13.8486 89.7139 13.6787 89.5322 13.5264C89.3506 13.3682 89.0957 13.2129 88.7676 13.0605C88.4394 12.9082 88.0146 12.75 87.4932 12.5859C86.9131 12.3984 86.3623 12.1875 85.8408 11.9531C85.3252 11.7188 84.8682 11.4463 84.4697 11.1357C84.0771 10.8193 83.7666 10.4531 83.5381 10.0371C83.3154 9.62109 83.2041 9.1377 83.2041 8.58692C83.2041 8.05371 83.3213 7.57031 83.5557 7.13672C83.79 6.69727 84.1182 6.32227 84.54 6.01172C84.9619 5.69531 85.46 5.45215 86.0342 5.28223C86.6143 5.11231 87.25 5.02735 87.9414 5.02735C88.8848 5.02735 89.708 5.19727 90.4111 5.53711C91.1143 5.87695 91.6592 6.34277 92.0459 6.93457C92.4385 7.52637 92.6348 8.20313 92.6348 8.96484H90.0156C90.0156 8.58984 89.9365 8.26172 89.7783 7.98047C89.626 7.69336 89.3916 7.46777 89.0752 7.30371C88.7646 7.13965 88.3721 7.05762 87.8975 7.05762C87.4404 7.05762 87.0596 7.12793 86.7549 7.26856C86.4502 7.40332 86.2217 7.58789 86.0693 7.82227C85.917 8.05078 85.8408 8.30859 85.8408 8.5957C85.8408 8.8125 85.8936 9.00879 85.999 9.18457C86.1103 9.36035 86.2744 9.52441 86.4912 9.67676C86.708 9.8291 86.9746 9.97266 87.291 10.1074C87.6074 10.2422 87.9736 10.374 88.3896 10.5029C89.0869 10.7139 89.6992 10.9512 90.2266 11.2148C90.7598 11.4785 91.2051 11.7744 91.5625 12.1025C91.9199 12.4307 92.1894 12.8027 92.3711 13.2188C92.5527 13.6348 92.6435 14.1064 92.6435 14.6338C92.6435 15.1904 92.5352 15.6885 92.3184 16.1279C92.1016 16.5674 91.7881 16.9395 91.3779 17.2441C90.9678 17.5488 90.4785 17.7803 89.9102 17.9385C89.3418 18.0967 88.7061 18.1758 88.0029 18.1758C87.3701 18.1758 86.7461 18.0937 86.1309 17.9297C85.5156 17.7598 84.9561 17.5049 84.4521 17.165C83.9541 16.8252 83.5557 16.3916 83.2568 15.8643C82.958 15.3369 82.8086 14.7129 82.8086 13.9922H85.4541C85.4541 14.3906 85.5156 14.7275 85.6387 15.0029C85.7617 15.2783 85.9346 15.501 86.1572 15.6709C86.3857 15.8408 86.6553 15.9639 86.9658 16.04C87.2822 16.1162 87.6279 16.1543 88.0029 16.1543C88.46 16.1543 88.835 16.0898 89.1279 15.9609C89.4268 15.832 89.6465 15.6533 89.7871 15.4248C89.9336 15.1963 90.0068 14.9385 90.0068 14.6514Z" fill="#94A3B8"/>
</svg>
